<svg width="410" height="127" viewBox="0 0 410 127" fill="none" xmlns="http://www.w3.org/2000/svg">
<path d="M67.1818 52.9091H44.0909C43.9697 51.4848 43.4697 50.2576 42.5909 49.2273C41.7121 48.197 40.5757 47.4091 39.1818 46.8636C37.8182 46.2879 36.303 46 34.6363 46C32.4848 46 30.6363 46.3939 29.0909 47.1818C27.5454 47.9697 26.7879 49.0909 26.8182 50.5455C26.7879 51.5758 27.2273 52.5303 28.1363 53.4091C29.0757 54.2879 30.8788 54.9697 33.5454 55.4545L47.7273 58C54.8788 59.303 60.197 61.5 63.6818 64.5909C67.1969 67.6515 68.9697 71.7576 69 76.9091C68.9697 81.8788 67.4848 86.197 64.5454 89.8636C61.6363 93.5 57.6515 96.3182 52.5909 98.3182C47.5606 100.288 41.8182 101.273 35.3636 101.273C24.6969 101.273 16.3485 99.0909 10.3182 94.7273C4.31816 90.3636 0.969675 84.6061 0.272705 77.4545H25.1818C25.5151 79.6667 26.606 81.3788 28.4545 82.5909C30.3333 83.7727 32.6969 84.3636 35.5454 84.3636C37.8485 84.3636 39.7424 83.9697 41.2273 83.1818C42.7424 82.3939 43.5151 81.2727 43.5454 79.8182C43.5151 78.4849 42.8485 77.4242 41.5454 76.6364C40.2727 75.8485 38.2727 75.2121 35.5454 74.7273L23.1818 72.5455C16.0606 71.303 10.7273 68.9394 7.1818 65.4545C3.63634 61.9697 1.87877 57.4848 1.90907 52C1.87877 47.1515 3.15149 43.0455 5.72725 39.6818C8.33331 36.2879 12.0454 33.7121 16.8636 31.9545C21.7121 30.1667 27.4545 29.2727 34.0909 29.2727C44.1818 29.2727 52.1363 31.3636 57.9545 35.5455C63.803 39.7273 66.8788 45.5151 67.1818 52.9091Z" fill="#22D37B"/>
<path d="M78.6136 126.182V30.1818H103.523V42.3636H104.068C104.977 40 106.311 37.8333 108.068 35.8636C109.826 33.8636 112.008 32.2727 114.614 31.0909C117.22 29.8788 120.25 29.2727 123.705 29.2727C128.311 29.2727 132.689 30.5 136.841 32.9545C141.023 35.4091 144.417 39.2727 147.023 44.5455C149.659 49.8182 150.977 56.6667 150.977 65.0909C150.977 73.1515 149.72 79.8333 147.205 85.1364C144.72 90.4394 141.386 94.3939 137.205 97C133.053 99.6061 128.492 100.909 123.523 100.909C120.25 100.909 117.326 100.379 114.75 99.3182C112.205 98.2273 110.023 96.7576 108.205 94.9091C106.417 93.0303 105.038 90.9091 104.068 88.5455H103.705V126.182H78.6136ZM103.159 65.0909C103.159 68.4849 103.598 71.4242 104.477 73.9091C105.386 76.3636 106.659 78.2727 108.295 79.6364C109.962 80.9697 111.947 81.6364 114.25 81.6364C116.553 81.6364 118.508 80.9848 120.114 79.6818C121.75 78.3485 122.992 76.4545 123.841 74C124.72 71.5152 125.159 68.5455 125.159 65.0909C125.159 61.6364 124.72 58.6818 123.841 56.2273C122.992 53.7424 121.75 51.8485 120.114 50.5455C118.508 49.2121 116.553 48.5455 114.25 48.5455C111.947 48.5455 109.962 49.2121 108.295 50.5455C106.659 51.8485 105.386 53.7424 104.477 56.2273C103.598 58.6818 103.159 61.6364 103.159 65.0909Z" fill="#22D37B"/>
<path d="M195.125 101.273C187.549 101.273 181.064 99.7727 175.67 96.7727C170.277 93.7424 166.14 89.5303 163.261 84.1364C160.383 78.7121 158.943 72.4242 158.943 65.2727C158.943 58.1212 160.383 51.8485 163.261 46.4545C166.14 41.0303 170.277 36.8182 175.67 33.8182C181.064 30.7879 187.549 29.2727 195.125 29.2727C202.701 29.2727 209.186 30.7879 214.58 33.8182C219.973 36.8182 224.11 41.0303 226.989 46.4545C229.867 51.8485 231.307 58.1212 231.307 65.2727C231.307 72.4242 229.867 78.7121 226.989 84.1364C224.11 89.5303 219.973 93.7424 214.58 96.7727C209.186 99.7727 202.701 101.273 195.125 101.273ZM195.307 82.7273C197.428 82.7273 199.261 82.0152 200.807 80.5909C202.352 79.1667 203.549 77.1364 204.398 74.5C205.246 71.8636 205.67 68.7273 205.67 65.0909C205.67 61.4242 205.246 58.2879 204.398 55.6818C203.549 53.0455 202.352 51.0152 200.807 49.5909C199.261 48.1667 197.428 47.4545 195.307 47.4545C193.064 47.4545 191.14 48.1667 189.534 49.5909C187.928 51.0152 186.701 53.0455 185.852 55.6818C185.004 58.2879 184.58 61.4242 184.58 65.0909C184.58 68.7273 185.004 71.8636 185.852 74.5C186.701 77.1364 187.928 79.1667 189.534 80.5909C191.14 82.0152 193.064 82.7273 195.307 82.7273Z" fill="#22D37B"/>
<path d="M283.125 30.1818V48.3636H237.125V30.1818H283.125ZM246.034 13.4545H271.125V77.5455C271.125 78.5152 271.292 79.3333 271.625 80C271.958 80.6364 272.473 81.1212 273.17 81.4545C273.867 81.7576 274.761 81.9091 275.852 81.9091C276.61 81.9091 277.489 81.8182 278.489 81.6364C279.519 81.4545 280.276 81.303 280.761 81.1818L284.398 98.8182C283.276 99.1515 281.67 99.5606 279.58 100.045C277.519 100.53 275.064 100.848 272.216 101C266.458 101.303 261.625 100.712 257.716 99.2273C253.807 97.7121 250.867 95.3333 248.898 92.0909C246.928 88.8485 245.973 84.7879 246.034 79.9091V13.4545Z" fill="#22D37B"/>
<path d="M335 30.1818V48.3636H289V30.1818H335ZM297.909 13.4545H323V77.5455C323 78.5152 323.167 79.3333 323.5 80C323.833 80.6364 324.348 81.1212 325.045 81.4545C325.742 81.7576 326.636 81.9091 327.727 81.9091C328.485 81.9091 329.364 81.8182 330.364 81.6364C331.394 81.4545 332.151 81.303 332.636 81.1818L336.273 98.8182C335.151 99.1515 333.545 99.5606 331.455 100.045C329.394 100.53 326.939 100.848 324.091 101C318.333 101.303 313.5 100.712 309.591 99.2273C305.682 97.7121 302.742 95.3333 300.773 92.0909C298.803 88.8485 297.848 84.7879 297.909 79.9091V13.4545Z" fill="#22D37B"/>
<path d="M345.239 100V30.1818H370.33V100H345.239ZM357.784 22.9091C354.39 22.9091 351.481 21.7879 349.057 19.5455C346.633 17.303 345.42 14.6061 345.42 11.4545C345.42 8.30303 346.633 5.60606 349.057 3.36363C351.481 1.12121 354.39 0 357.784 0C361.208 0 364.117 1.12121 366.511 3.36363C368.936 5.60606 370.148 8.30303 370.148 11.4545C370.148 14.6061 368.936 17.303 366.511 19.5455C364.117 21.7879 361.208 22.9091 357.784 22.9091Z" fill="#22D37B"/>
<path d="M396.75 101.455C393.235 101.455 390.22 100.227 387.705 97.7727C385.22 95.2879 383.992 92.2727 384.023 88.7273C383.992 85.2727 385.22 82.3182 387.705 79.8636C390.22 77.4091 393.235 76.1818 396.75 76.1818C400.083 76.1818 403.023 77.4091 405.568 79.8636C408.144 82.3182 409.447 85.2727 409.477 88.7273C409.447 91.0909 408.826 93.2424 407.614 95.1818C406.432 97.0909 404.886 98.6212 402.977 99.7727C401.068 100.894 398.992 101.455 396.75 101.455Z" fill="#22D37B"/>
</svg>
